<svg xmlns="http://www.w3.org/2000/svg" xmlns:xlink="http://www.w3.org/1999/xlink"><defs>
    <style>
      .cls-1 {
        fill: #dfedff;
      }

      .cls-2 {
        fill: #0f7bff;
        fill-rule: evenodd;
      }
    </style>
  
    <style>
      .cls-1 {
        fill: #dfedff;
      }

      .cls-2 {
        fill: #0f7bff;
        fill-rule: evenodd;
      }
    </style>
  
    <style>
      .cls-1 {
        fill: #f5dfff;
      }

      .cls-2 {
        fill: #af00ff;
        fill-rule: evenodd;
      }
    </style>
  
    <style>
      .cls-1 {
        fill: #dfedff;
      }

      .cls-2 {
        fill: #0f7bff;
        fill-rule: evenodd;
      }
    </style>
  
    <style>
      .cls-1 {
        fill: #dfffe3;
      }

      .cls-2 {
        fill: #0fff2d;
        fill-rule: evenodd;
      }
    </style>
  
    <style>
      .cls-1 {
        fill: #dfedff;
      }

      .cls-2 {
        fill: #0f7bff;
        fill-rule: evenodd;
      }
    </style>
  </defs><symbol id="icon-account" viewBox="0 0 100 100">
  
  <circle class="cls-1" cx="50" cy="50" r="50"/>
  <path id="Forma_1" data-name="Forma 1" class="cls-2" d="M585.2,3211.36a0.9,0.9,0,0,0,.9-0.89v-9.77a2.7,2.7,0,0,0-2.7-2.7H550.7a2.7,2.7,0,0,0-2.7,2.7v40.6a2.7,2.7,0,0,0,2.7,2.7h32.7a2.7,2.7,0,0,0,2.7-2.7v-6.61a0.9,0.9,0,1,0-1.8,0v6.61a0.9,0.9,0,0,1-.9.9H550.7a0.9,0.9,0,0,1-.9-0.9v-40.6a0.9,0.9,0,0,1,.9-0.9h32.7a0.9,0.9,0,0,1,.9.9v9.77A0.9,0.9,0,0,0,585.2,3211.36Zm-18.149-8.51a8.259,8.259,0,0,0-5.671,14.27,0.323,0.323,0,0,0,.1.09,8.245,8.245,0,0,0,11.149,0,0.323,0.323,0,0,0,.1-0.09A8.258,8.258,0,0,0,567.048,3202.85Zm0,14.74a6.477,6.477,0,0,1-3.908-1.32,4.488,4.488,0,0,1,7.815,0A6.474,6.474,0,0,1,567.048,3217.59Zm-1.438-6.83v-0.59a1.438,1.438,0,0,1,2.875,0v0.59A1.438,1.438,0,0,1,565.61,3210.76Zm6.643,4.19a6.239,6.239,0,0,0-2.647-2.22,3.2,3.2,0,0,0,.676-1.97v-0.59a3.235,3.235,0,0,0-6.469,0v0.59a3.2,3.2,0,0,0,.676,1.97,6.239,6.239,0,0,0-2.647,2.22A6.47,6.47,0,1,1,572.253,3214.95Zm-0.354,22.4h-4.851a0.9,0.9,0,0,0,0,1.8H571.9A0.9,0.9,0,0,0,571.9,3237.35Zm0-5.03H559.141a0.9,0.9,0,0,0,0,1.8H571.9A0.9,0.9,0,0,0,571.9,3232.32Zm0-5.03H559.141a0.9,0.9,0,1,0,0,1.79H571.9A0.9,0.9,0,1,0,571.9,3227.29Zm-15.96-4.77a0.907,0.907,0,0,0-1.271,0,0.9,0.9,0,0,0,0,1.27,0.907,0.907,0,0,0,1.271,0A0.9,0.9,0,0,0,555.939,3222.52Zm0,5.03a0.907,0.907,0,0,0-1.271,0,0.912,0.912,0,0,0-.264.64,0.9,0.9,0,0,0,1.8,0A0.915,0.915,0,0,0,555.939,3227.55Zm0,5.03a0.907,0.907,0,0,0-1.271,0,0.912,0.912,0,0,0-.264.64,0.889,0.889,0,0,0,.264.63,0.9,0.9,0,0,0,1.534-.63A0.915,0.915,0,0,0,555.939,3232.58Zm15.96-10.32H559.141a0.9,0.9,0,1,0,0,1.79H571.9A0.9,0.9,0,1,0,571.9,3222.26Zm20.216-12.55a3.768,3.768,0,0,0-5.155,1.38l-11.307,19.58a0.938,0.938,0,0,0-.115.35l-0.795,7.13a0.9,0.9,0,0,0,.892,1,0.877,0.877,0,0,0,.533-0.18l5.776-4.25a0.85,0.85,0,0,0,.245-0.28l11.307-19.58A3.773,3.773,0,0,0,592.115,3209.71Zm-15.359,26.6,0.416-3.72,2.6,1.5Zm4.326-3.54-3.423-1.98,9.073-15.71,3.424,1.97Zm10.858-18.81-0.886,1.54-3.424-1.98,0.886-1.53a1.929,1.929,0,0,1,1.2-.92A1.972,1.972,0,0,1,591.94,3213.96Z" transform="translate(-521 -3171)"/>
</symbol><symbol id="icon-analysis" viewBox="0 0 70 70">
  
  <circle class="cls-1" cx="35" cy="35" r="35"/>
  <path id="Forma_1" data-name="Forma 1" class="cls-2" d="M586.823,1273.69l-5.51-5.51a0.584,0.584,0,0,0-.428-0.18H562.9a1.814,1.814,0,0,0-1.816,1.81v1.16a8.009,8.009,0,0,0-5.086,7.45,0.6,0.6,0,0,0,.605.6H564a0.6,0.6,0,0,0,.6-0.6v-7.39a0.606,0.606,0,0,0-.6-0.61,7.943,7.943,0,0,0-1.7.18v-0.79a0.6,0.6,0,0,1,.605-0.6h17.377v3.69a1.823,1.823,0,0,0,1.817,1.82h3.693v22.46a0.606,0.606,0,0,1-.605.61H562.9a0.606,0.606,0,0,1-.605-0.61V1292a0.606,0.606,0,1,0-1.211,0v5.18A1.823,1.823,0,0,0,562.9,1299h22.282a1.823,1.823,0,0,0,1.816-1.82v-23.07A0.584,0.584,0,0,0,586.823,1273.69Zm-23.431-2.03v6.15h-6.154A6.794,6.794,0,0,1,563.392,1271.66Zm18.7,1.85a0.606,0.606,0,0,1-.606-0.61v-2.83l3.443,3.44H582.1Zm-19.977,15.86a0.6,0.6,0,0,0-.856,0,0.6,0.6,0,0,0,0,.85,0.6,0.6,0,0,0,.856,0A0.6,0.6,0,0,0,562.119,1289.37Zm4.047-16.78a0.6,0.6,0,0,0-.605.6v6.79h-6.787a0.606,0.606,0,0,0-.605.61A8,8,0,1,0,566.166,1272.59Zm0.606,1.24a6.747,6.747,0,0,1,3.744,1.55l-3.744,3.75v-5.3Zm-0.606,13.54a6.8,6.8,0,0,1-6.76-6.18h6.76a0.639,0.639,0,0,0,.428-0.17v-0.01l4.778-4.77A6.779,6.779,0,0,1,566.166,1287.37Zm16.358-.26a1.812,1.812,0,0,0-1.673,2.52l-3.488,3.49a1.762,1.762,0,0,0-.793-0.18,1.831,1.831,0,0,0-.776.17l-2.316-2.31a1.855,1.855,0,0,0,.125-0.67,1.817,1.817,0,0,0-3.633,0,1.772,1.772,0,0,0,.167.76l-2.221,2.23a1.718,1.718,0,0,0-.781-0.18,1.815,1.815,0,1,0,1.816,1.82,1.844,1.844,0,0,0-.178-0.79l2.209-2.21a1.814,1.814,0,0,0,.805.19,1.713,1.713,0,0,0,.9-0.24l2.251,2.25a1.817,1.817,0,1,0,3.28.02l3.455-3.45a1.883,1.883,0,0,0,.855.21A1.815,1.815,0,1,0,582.524,1287.11Zm-15.389,8.25a0.605,0.605,0,1,1,0-1.21,0.626,0.626,0,0,1,.419.17,0.061,0.061,0,0,0,.007.01s0.006,0,.009.01a0.576,0.576,0,0,1,.17.42A0.6,0.6,0,0,1,567.135,1295.36Zm4.651-4.62a0.605,0.605,0,1,1,.606-0.61A0.606,0.606,0,0,1,571.786,1290.74Zm4.784,4.62a0.605,0.605,0,1,1,.6-0.61A0.606,0.606,0,0,1,576.57,1295.36Zm5.954-5.83a0.605,0.605,0,1,1,.605-0.61A0.606,0.606,0,0,1,582.524,1289.53Zm-3.026-7.3h-3.2a0.605,0.605,0,1,0,0,1.21h3.2A0.605,0.605,0,1,0,579.5,1282.23Zm3.184,0.17a0.624,0.624,0,0,0-.856,0,0.629,0.629,0,0,0-.177.43,0.607,0.607,0,0,0,.177.43,0.6,0.6,0,0,0,.856,0,0.608,0.608,0,0,0,.178-0.43A0.625,0.625,0,0,0,582.682,1282.4Zm1.016-5.99h-7.4a0.61,0.61,0,0,0,0,1.22h7.4A0.61,0.61,0,0,0,583.7,1276.41Zm0,2.91h-7.4a0.605,0.605,0,1,0,0,1.21h7.4A0.605,0.605,0,1,0,583.7,1279.32Z" transform="translate(-536 -1248)"/>
</symbol><symbol id="icon-clean-design" viewBox="0 0 70 70">
  
  <circle class="cls-1" cx="35" cy="35" r="35"/>
  <path id="Forma_1" data-name="Forma 1" class="cls-2" d="M976.6,1333.2l-4.243-6.48a1.778,1.778,0,0,0-1.491-.8H952.146a1.778,1.778,0,0,0-1.49.8l-4.256,6.47a1.751,1.751,0,0,0,.163,2.13l13.609,15.09a1.8,1.8,0,0,0,1.327.59h0a1.8,1.8,0,0,0,1.327-.59l13.611-15.09A1.741,1.741,0,0,0,976.6,1333.2Zm-6.594-5.77-3.568,5.45-3.57-5.45h7.138Zm-4.968,6.08h-7.08l3.54-5.4Zm-4.909-6.08-3.561,5.43-3.559-5.43h7.12Zm-8.529.62,3.578,5.46h-7.17Zm-3.271,6.96H956l4.053,13Zm13.169,12.54-3.908-12.54h7.816Zm1.449,0.46L967,1335.02h7.667Zm4.891-14.5,3.575-5.46,3.579,5.46h-7.154Zm-23.529,0h-1.548a0.75,0.75,0,1,0,0,1.5h1.548A0.75,0.75,0,1,0,944.31,1333.51Zm35.928,0h-1.549a0.75,0.75,0,1,0,0,1.5h1.549A0.75,0.75,0,1,0,980.238,1333.51Zm-4.94-12.87a0.775,0.775,0,0,0-1.077,0l-2.53,2.5a0.759,0.759,0,0,0,1.077,1.07l2.53-2.5A0.752,0.752,0,0,0,975.3,1320.64Zm-23.956,2.49-2.53-2.5a0.775,0.775,0,0,0-1.077,0,0.752,0.752,0,0,0,0,1.07l2.53,2.5a0.769,0.769,0,0,0,1.077,0A0.752,0.752,0,0,0,951.342,1323.13Zm10.177-8.13a0.758,0.758,0,0,0-.761.75v4.91a0.762,0.762,0,0,0,1.523,0v-4.91A0.759,0.759,0,0,0,961.519,1315Zm0.538,7.67a0.769,0.769,0,0,0-1.077,0,0.741,0.741,0,0,0,0,1.06,0.769,0.769,0,0,0,1.077,0A0.739,0.739,0,0,0,962.057,1322.67Z" transform="translate(-926 -1298)"/>
</symbol><symbol id="icon-email" viewBox="0 0 100 100">
  
  <circle class="cls-1" cx="50" cy="50" r="50"/>
  <path id="Forma_1" data-name="Forma 1" class="cls-2" d="M954.92,3198.27a0.92,0.92,0,1,0,.269.65A0.93,0.93,0,0,0,954.92,3198.27ZM985,3215.12a0.914,0.914,0,0,0-.378-0.7l-4.577-3.31v-10.36a2.752,2.752,0,0,0-2.754-2.75H957.874a0.92,0.92,0,0,0,0,1.84h19.415a0.916,0.916,0,0,1,.918.91v18.03L967,3227.93l-2.811-2.04a4.6,4.6,0,0,0-5.382,0L956,3227.93l-11.205-9.15v-18.03a0.916,0.916,0,0,1,.918-0.91h5a0.92,0.92,0,0,0,0-1.84h-5a2.752,2.752,0,0,0-2.754,2.75v10.36l-4.577,3.31h0a0.926,0.926,0,0,0-.381.75v25.24a4.6,4.6,0,0,0,4.59,4.59h37.82a4.6,4.6,0,0,0,4.59-4.59v-25.24C985,3215.15,985,3215.13,985,3215.12Zm-4.955-1.74,2.534,1.83-2.534,2.07v-3.9Zm-37.086,0v3.9l-2.534-2.07Zm-3.121,3.72,14.623,11.94-14.623,10.58V3217.1Zm40.574,26.06H942.59a2.764,2.764,0,0,1-2.449-1.49l19.745-14.29a2.743,2.743,0,0,1,3.228,0l15.725,11.38H969.67a0.915,0.915,0,1,0,0,1.83h11.706l1.483,1.08A2.764,2.764,0,0,1,980.41,3243.16Zm2.754-3.54-14.623-10.58,14.623-11.94v22.52Zm-17.14-30.67a0.934,0.934,0,0,0-1.3,0l-4.5,4.51-1.947-1.95a0.919,0.919,0,1,0-1.3,1.3l2.6,2.6a0.94,0.94,0,0,0,1.3,0l5.154-5.16A0.921,0.921,0,0,0,966.024,3208.95Zm-4.524-5.99a9.22,9.22,0,1,0,9.224,9.22A9.229,9.229,0,0,0,961.5,3202.96Zm0,16.61a7.39,7.39,0,1,1,7.388-7.39A7.4,7.4,0,0,1,961.5,3219.57Zm4.658,19.46a0.915,0.915,0,0,0-1.3,0,0.908,0.908,0,0,0,0,1.29,0.915,0.915,0,0,0,1.3,0A0.908,0.908,0,0,0,966.158,3239.03Z" transform="translate(-911 -3171)"/>
</symbol><symbol id="icon-messaging" viewBox="0 0 70 70">
  
  <circle class="cls-1" cx="35" cy="35" r="35"/>
  <path id="Forma_1" data-name="Forma 1" class="cls-2" d="M1346.88,1266.19a0.66,0.66,0,0,0-.46-0.19,0.649,0.649,0,0,0-.64.64,0.66,0.66,0,0,0,.19.46,0.636,0.636,0,0,0,.45.19,0.649,0.649,0,0,0,.65-0.65A0.636,0.636,0,0,0,1346.88,1266.19Zm21.12,11.83a0.632,0.632,0,0,0-.27-0.49l-3.21-2.33v-7.27a1.938,1.938,0,0,0-1.93-1.93h-13.64a0.645,0.645,0,0,0,0,1.29h13.64a0.644,0.644,0,0,1,.64.64v12.66l-7.87,6.42-1.97-1.43a3.244,3.244,0,0,0-3.78,0l-1.97,1.43-7.87-6.42v-12.66a0.644,0.644,0,0,1,.64-0.64h3.52a0.645,0.645,0,0,0,0-1.29h-3.52a1.938,1.938,0,0,0-1.93,1.93v7.27l-3.21,2.33h0a0.658,0.658,0,0,0-.27.52v17.73a3.231,3.231,0,0,0,3.22,3.22h26.56a3.231,3.231,0,0,0,3.22-3.22v-17.76Zm-3.48-1.22,1.78,1.28-1.78,1.45v-2.73Zm-26.04,0v2.73l-1.78-1.45Zm-2.19,2.61,10.27,8.38-10.27,7.43v-15.81Zm28.49,18.3h-26.56a1.938,1.938,0,0,1-1.72-1.05l13.87-10.03a1.921,1.921,0,0,1,2.26,0l11.04,7.99h-6.43a0.64,0.64,0,1,0,0,1.28h8.22l1.04,0.76A1.938,1.938,0,0,1,1364.78,1297.71Zm1.93-2.49-10.27-7.43,10.27-8.38v15.81Zm-12.03-21.53a0.658,0.658,0,0,0-.92,0l-3.16,3.16-1.37-1.36a0.628,0.628,0,0,0-.91,0,0.646,0.646,0,0,0,0,.91l1.83,1.82a0.636,0.636,0,0,0,.45.19,0.66,0.66,0,0,0,.46-0.19l3.62-3.62A0.646,0.646,0,0,0,1354.68,1273.69Zm-3.18-4.21a6.475,6.475,0,1,0,6.48,6.48A6.483,6.483,0,0,0,1351.5,1269.48Zm0,11.66a5.185,5.185,0,1,1,5.19-5.19A5.19,5.19,0,0,1,1351.5,1281.14Zm3.27,13.66a0.65,0.65,0,0,0-.46-0.18,0.627,0.627,0,0,0-.45.18,0.652,0.652,0,0,0,0,.92,0.627,0.627,0,0,0,.45.18,0.65,0.65,0,0,0,.46-0.18A0.652,0.652,0,0,0,1354.77,1294.8Z" transform="translate(-1316 -1247)"/>
</symbol><symbol id="icon-results" viewBox="0 0 100 100">
  
  <circle class="cls-1" cx="50" cy="50" r="50"/>
  <path id="Forma_1" data-name="Forma 1" class="cls-2" d="M1351,3197.72a2.377,2.377,0,1,0,2.29,2.38A2.342,2.342,0,0,0,1351,3197.72Zm0,3.23a0.837,0.837,0,0,1-.82-0.85,0.821,0.821,0,1,1,1.64,0A0.837,0.837,0,0,1,1351,3200.95Zm10.38,11.05a5.786,5.786,0,0,0-5.69-4.43,6.816,6.816,0,0,1-9.38,0,5.806,5.806,0,0,0-5.7,4.43c-0.33,1.4-.33,3.65,1.56,6.42,1.7,2.49,4.55,4.84,8.49,6.98a0.687,0.687,0,0,0,.68,0c3.94-2.14,6.79-4.49,8.49-6.98C1361.72,3215.65,1361.72,3213.4,1361.38,3212Zm-2.75,5.54a22.061,22.061,0,0,1-7.63,6.33,22.061,22.061,0,0,1-7.63-6.33,6.6,6.6,0,0,1-1.33-5.18,4.264,4.264,0,0,1,4.27-3.26,5.958,5.958,0,0,1,4.18,1.91,0.707,0.707,0,0,0,1.02,0,5.958,5.958,0,0,1,4.18-1.91,4.272,4.272,0,0,1,4.27,3.26A6.6,6.6,0,0,1,1358.63,3217.54Zm-12.76-4.52a0.747,0.747,0,0,0-.73.76v0.96a0.735,0.735,0,1,0,1.47,0v-0.96A0.749,0.749,0,0,0,1345.87,3213.02Zm10.26,0a0.749,0.749,0,0,0-.74.76v0.96a0.735,0.735,0,1,0,1.47,0v-0.96A0.747,0.747,0,0,0,1356.13,3213.02Zm-3.38,1.08a0.715,0.715,0,0,0-1.04.07,0.948,0.948,0,0,1-1.42,0,0.715,0.715,0,0,0-1.04-.07,0.779,0.779,0,0,0-.07,1.07,2.392,2.392,0,0,0,3.64,0A0.779,0.779,0,0,0,1352.75,3214.1Zm7.67,22.03h-18.84a0.761,0.761,0,0,0,0,1.52h18.84A0.761,0.761,0,0,0,1360.42,3236.13Zm0-4.03h-18.84a0.756,0.756,0,0,0-.73.77,0.747,0.747,0,0,0,.73.76h18.84a0.747,0.747,0,0,0,.73-0.76A0.756,0.756,0,0,0,1360.42,3232.1Zm0-4.02h-18.84a0.761,0.761,0,0,0,0,1.52h18.84A0.761,0.761,0,0,0,1360.42,3228.08Zm9.85-19.73a0.747,0.747,0,0,0,.73-0.76v-4.77a4.6,4.6,0,0,0-4.5-4.67h-3.95a2.181,2.181,0,0,0-2.04-1.5h-5.17a1.731,1.731,0,0,1-1.16-.44,4.784,4.784,0,0,0-6.36,0,1.731,1.731,0,0,1-1.16.44h-5.17a2.181,2.181,0,0,0-2.04,1.5h-3.95a4.6,4.6,0,0,0-4.5,4.67v39.51a4.59,4.59,0,0,0,4.5,4.67h31a4.59,4.59,0,0,0,4.5-4.67v-31.69a0.735,0.735,0,1,0-1.47,0v31.69a3.094,3.094,0,0,1-3.03,3.15h-31a3.094,3.094,0,0,1-3.03-3.15v-39.51a3.091,3.091,0,0,1,3.03-3.14h3.83v2.31h-3.79a0.749,0.749,0,0,0-.74.76v29.01a0.735,0.735,0,1,0,1.47,0v-28.25h3.14a0.01,0.01,0,0,0,.01.01,2.246,2.246,0,0,0,.99,1.3,2.071,2.071,0,0,0,1.08.3h19.02a2.051,2.051,0,0,0,1.32-.47,2.2,2.2,0,0,0,.75-1.13,0.01,0.01,0,0,0,.01-0.01h3.14v38.13h-29.46v-6.83a0.735,0.735,0,1,0-1.47,0v7.59a0.749,0.749,0,0,0,.74.76h30.92a0.749,0.749,0,0,0,.74-0.76v-39.65a0.749,0.749,0,0,0-.74-0.76h-3.79v-2.31h3.83a3.091,3.091,0,0,1,3.03,3.14v4.77A0.749,0.749,0,0,0,1370.27,3208.35Zm-9.06-5.6a0.754,0.754,0,0,1-.7.85h-19.02a0.761,0.761,0,0,1-.7-0.85v-3.85a0.713,0.713,0,0,1,.7-0.72h5.16a3.205,3.205,0,0,0,2.12-.81,3.35,3.35,0,0,1,4.46,0,3.2,3.2,0,0,0,2.11.81h5.17a0.713,0.713,0,0,1,.7.72v3.85h0Z" transform="translate(-1301 -3171)"/>
</symbol></svg>